<svg width="1153" height="361" viewBox="0 0 1153 361" fill="none" xmlns="http://www.w3.org/2000/svg">
<path d="M86.904 38H84.864V23.12H78.768L78.48 26.288C78.288 28.368 78.04 30.152 77.736 31.64C77.432 33.112 77.104 34.272 76.752 35.12C76.4 35.968 75.984 36.624 75.504 37.088C75.04 37.552 74.584 37.84 74.136 37.952C73.688 38.064 73.176 38.08 72.6 38L72.624 35.96C72.96 36.008 73.248 35.984 73.488 35.888C73.728 35.776 74 35.528 74.304 35.144C74.64 34.744 74.944 34.144 75.216 33.344C75.856 31.552 76.32 28.624 76.608 24.56L76.848 21.2H86.904V38ZM91.7181 29.48L91.2141 27.944C92.2861 27.288 93.4861 26.96 94.8141 26.96C96.2701 26.96 97.3261 27.32 97.9821 28.04C98.6381 28.76 98.9661 29.872 98.9661 31.376V38H97.1421V36.608C96.2941 37.648 95.1421 38.168 93.6861 38.168C92.6941 38.168 91.8941 37.872 91.2861 37.28C90.6781 36.672 90.3741 35.856 90.3741 34.832C90.3741 33.776 90.7501 32.944 91.5021 32.336C92.2541 31.712 93.2381 31.4 94.4541 31.4C95.5901 31.4 96.4861 31.632 97.1421 32.096C97.1421 30.88 96.9741 30.008 96.6381 29.48C96.3021 28.952 95.6541 28.688 94.6941 28.688C93.7181 28.688 92.7261 28.952 91.7181 29.48ZM94.3581 36.44C95.4301 36.44 96.3581 35.976 97.1421 35.048V33.68C96.4701 33.2 95.6621 32.96 94.7181 32.96C94.0621 32.96 93.5101 33.12 93.0621 33.44C92.6301 33.744 92.4141 34.176 92.4141 34.736C92.4141 35.264 92.5821 35.68 92.9181 35.984C93.2701 36.288 93.7501 36.44 94.3581 36.44ZM110.341 29.96L104.101 38H102.181V27.2H104.101V35.24L110.341 27.2H112.261V38H110.341V29.96ZM103.717 21.68H105.517C105.613 22.944 106.229 23.576 107.365 23.576C108.437 23.576 109.021 22.944 109.117 21.68H110.917C110.917 22.656 110.581 23.464 109.909 24.104C109.253 24.728 108.405 25.04 107.365 25.04C106.229 25.04 105.333 24.736 104.677 24.128C104.037 23.504 103.717 22.688 103.717 21.68ZM122.687 27.2H125.207L120.479 32.36L125.663 38H122.999L118.127 32.48L122.687 27.2ZM117.671 38H115.751V27.2H117.671V38ZM135.865 29.96L129.625 38H127.705V27.2H129.625V35.24L135.865 27.2H137.785V38H135.865V29.96Z" fill="white"/>
<path d="M41 46.6992C60.5865 49.3799 80.4222 50.5691 100.222 50.5691C116.622 50.5691 134.256 54.8026 150.056 48.7058C159.464 45.0751 171 45.2946 171 33.1545C171 19.474 155.678 14.7699 144.422 12.8732C128.644 10.2146 114.347 8 98.2 8C85.2072 8 74.7899 10.3672 62.45 13.0882C54.5725 14.8253 45.2433 19.8913 42.3 27.9229C41.067 31.2875 41 34.0485 41 37.6694C41 41.4097 52.1662 43.188 55.3 45.4092" stroke="white" stroke-width="1.5"/>
<path d="M705.638 175.684H708.11L700.622 183.58L708.494 192.484H705.878L698.27 183.724L705.638 175.684ZM697.862 192.484H695.822V175.684H697.862V192.484ZM710.495 191.14C709.439 190.052 708.911 188.7 708.911 187.084C708.911 185.452 709.439 184.108 710.495 183.052C711.567 181.98 712.959 181.444 714.671 181.444C716.383 181.444 717.767 181.98 718.823 183.052C719.895 184.108 720.431 185.452 720.431 187.084C720.431 188.716 719.895 190.068 718.823 191.14C717.767 192.196 716.383 192.724 714.671 192.724C712.975 192.724 711.583 192.196 710.495 191.14ZM712.007 184.324C711.303 185.028 710.951 185.948 710.951 187.084C710.951 188.22 711.295 189.14 711.983 189.844C712.687 190.564 713.583 190.924 714.671 190.924C715.759 190.924 716.647 190.572 717.335 189.868C718.039 189.148 718.391 188.22 718.391 187.084C718.391 185.98 718.039 185.06 717.335 184.324C716.647 183.604 715.759 183.244 714.671 183.244C713.583 183.244 712.695 183.604 712.007 184.324ZM725.122 192.484H723.202V181.684H724.954L729.106 187.036L733.042 181.684H734.746V192.484H732.826V184.612L729.082 189.628H729.01L725.122 184.612V192.484ZM740.145 192.484H738.225V181.684H739.977L744.129 187.036L748.065 181.684H749.769V192.484H747.849V184.612L744.105 189.628H744.033L740.145 184.612V192.484ZM761.769 189.796L762.369 191.308C761.329 192.252 759.977 192.724 758.313 192.724C756.553 192.724 755.153 192.212 754.113 191.188C753.057 190.164 752.529 188.796 752.529 187.084C752.529 185.468 753.025 184.124 754.017 183.052C754.993 181.98 756.353 181.444 758.097 181.444C759.537 181.444 760.729 181.908 761.673 182.836C762.633 183.748 763.113 184.932 763.113 186.388C763.113 186.852 763.073 187.284 762.993 187.684H754.689C754.769 188.692 755.145 189.484 755.817 190.06C756.505 190.636 757.385 190.924 758.457 190.924C759.865 190.924 760.969 190.548 761.769 189.796ZM758.001 183.244C757.057 183.244 756.273 183.508 755.649 184.036C755.041 184.564 754.681 185.26 754.569 186.124H761.121C761.073 185.228 760.769 184.524 760.209 184.012C759.665 183.5 758.929 183.244 758.001 183.244ZM775.557 192.484H773.637V187.924H767.637V192.484H765.717V181.684H767.637V186.124H773.637V181.684H775.557V192.484ZM781.622 183.604H777.662V181.684H787.502V183.604H783.542V192.484H781.622V183.604ZM793.08 192.484H789.6V181.684H791.52V184.924H793.296C794.768 184.924 795.848 185.26 796.536 185.932C797.224 186.588 797.568 187.492 797.568 188.644C797.568 189.732 797.208 190.644 796.488 191.38C795.8 192.116 794.664 192.484 793.08 192.484ZM801.552 192.484H799.632V181.684H801.552V192.484ZM792.936 186.724H791.52V190.684H792.912C793.824 190.684 794.488 190.524 794.904 190.204C795.32 189.884 795.528 189.388 795.528 188.716C795.528 187.388 794.664 186.724 792.936 186.724Z" fill="white"/>
<path d="M690.302 170.485C697.969 164.985 724.302 155.285 768.302 160.485C823.302 166.985 822.302 186.484 818.302 193.484C814.302 200.484 786.802 210.984 759.302 211.484C731.802 211.984 714.302 212.984 690.302 204.984C671.102 198.584 675.302 184.984 679.802 178.984L690.302 165.484" stroke="white" stroke-width="1.5"/>
<path d="M404.294 323.676H402.254V321.468H402.23C399.814 321.468 397.878 320.884 396.422 319.716C394.982 318.548 394.262 316.924 394.262 314.844C394.262 312.764 394.982 311.148 396.422 309.996C397.846 308.844 399.79 308.252 402.254 308.22V306.492H404.294V308.22C406.774 308.252 408.734 308.844 410.174 309.996C411.63 311.164 412.358 312.78 412.358 314.844C412.358 316.908 411.622 318.532 410.15 319.716C408.694 320.884 406.766 321.468 404.366 321.468H404.294V323.676ZM404.318 310.116H404.294V319.596H404.342C406.198 319.596 407.638 319.188 408.662 318.372C409.686 317.556 410.198 316.38 410.198 314.844C410.198 313.356 409.678 312.196 408.638 311.364C407.614 310.532 406.174 310.116 404.318 310.116ZM396.422 314.844C396.422 316.364 396.934 317.54 397.958 318.372C398.998 319.188 400.422 319.596 402.23 319.596H402.254V310.116C400.43 310.116 398.998 310.54 397.958 311.388C396.934 312.22 396.422 313.372 396.422 314.844ZM423.205 315.444L416.965 323.484H415.045V312.684H416.965V320.724L423.205 312.684H425.125V323.484H423.205V315.444ZM437.928 323.484H436.008V314.604H432.216L432.096 316.428C431.968 317.916 431.776 319.156 431.52 320.148C431.28 321.124 430.96 321.86 430.56 322.356C430.176 322.836 429.768 323.172 429.336 323.364C428.904 323.54 428.376 323.628 427.752 323.628L427.608 321.756C427.784 321.772 427.968 321.748 428.16 321.684C428.352 321.604 428.56 321.444 428.784 321.204C429.024 320.964 429.232 320.644 429.408 320.244C429.6 319.844 429.768 319.284 429.912 318.564C430.072 317.828 430.176 316.988 430.224 316.044L430.416 312.684H437.928V323.484ZM445.037 323.484H441.389V312.684H443.309V315.924H445.277C446.749 315.924 447.829 316.26 448.517 316.932C449.205 317.588 449.549 318.492 449.549 319.644C449.549 320.732 449.189 321.644 448.469 322.38C447.749 323.116 446.605 323.484 445.037 323.484ZM444.917 317.724H443.309V321.684H444.893C446.637 321.684 447.509 321.028 447.509 319.716C447.509 318.388 446.645 317.724 444.917 317.724ZM453.919 314.604H449.959V312.684H459.799V314.604H455.839V323.484H453.919V314.604ZM463.817 328.284H461.897V312.684H463.817V313.956C464.201 313.508 464.729 313.148 465.401 312.876C466.073 312.588 466.769 312.444 467.489 312.444C469.025 312.444 470.233 312.956 471.113 313.98C472.025 314.988 472.481 316.3 472.481 317.916C472.481 319.564 471.961 320.948 470.921 322.068C469.897 323.172 468.545 323.724 466.865 323.724C465.569 323.724 464.553 323.476 463.817 322.98V328.284ZM466.937 314.244C465.657 314.244 464.617 314.74 463.817 315.732V321.084C464.665 321.644 465.625 321.924 466.697 321.924C467.833 321.924 468.737 321.564 469.409 320.844C470.097 320.108 470.441 319.156 470.441 317.988C470.441 316.852 470.129 315.948 469.505 315.276C468.881 314.588 468.025 314.244 466.937 314.244ZM475.809 314.964L475.305 313.428C476.377 312.772 477.577 312.444 478.905 312.444C480.361 312.444 481.417 312.804 482.073 313.524C482.729 314.244 483.057 315.356 483.057 316.86V323.484H481.233V322.092C480.385 323.132 479.233 323.652 477.777 323.652C476.785 323.652 475.985 323.356 475.377 322.764C474.769 322.156 474.465 321.34 474.465 320.316C474.465 319.26 474.841 318.428 475.593 317.82C476.345 317.196 477.329 316.884 478.545 316.884C479.681 316.884 480.577 317.116 481.233 317.58C481.233 316.364 481.065 315.492 480.729 314.964C480.393 314.436 479.745 314.172 478.785 314.172C477.809 314.172 476.817 314.436 475.809 314.964ZM478.449 321.924C479.521 321.924 480.449 321.46 481.233 320.532V319.164C480.561 318.684 479.753 318.444 478.809 318.444C478.153 318.444 477.601 318.604 477.153 318.924C476.721 319.228 476.505 319.66 476.505 320.22C476.505 320.748 476.673 321.164 477.009 321.468C477.361 321.772 477.841 321.924 478.449 321.924ZM495.872 323.484H486.272V312.684H488.192V321.684H493.952V312.684H495.872V321.684H497.672V326.124H495.872V323.484ZM507.909 315.444L501.669 323.484H499.749V312.684H501.669V320.724L507.909 312.684H509.829V323.484H507.909V315.444ZM518.047 312.684H521.407V323.484H519.487V319.884H517.399L514.759 323.484H512.431L515.551 319.404C514.895 319.26 514.343 318.908 513.895 318.348C513.447 317.772 513.223 317.084 513.223 316.284C513.223 315.18 513.623 314.308 514.423 313.668C515.223 313.012 516.431 312.684 518.047 312.684ZM515.263 316.332C515.263 316.844 515.463 317.268 515.863 317.604C516.263 317.924 516.735 318.084 517.279 318.084H519.487V314.484H517.735C516.919 314.484 516.303 314.652 515.887 314.988C515.471 315.324 515.263 315.772 515.263 316.332Z" fill="white"/>
<path d="M390.302 301.485C397.969 295.985 445 288.3 489 293.5C544 300 536.5 318.501 532.5 325.501C528.5 332.501 508.5 341.5 481 342C453.5 342.5 420.5 343 396.5 335C377.3 328.6 375.302 315.985 379.802 309.985L390.302 296.485" stroke="white" stroke-width="1.5"/>
<path d="M813.513 32.205L814.329 33.741C813.769 34.317 813.009 34.773 812.049 35.109C811.089 35.445 810.081 35.613 809.025 35.613C806.513 35.613 804.457 34.829 802.857 33.261C801.289 31.661 800.505 29.565 800.505 26.973C800.505 24.477 801.257 22.421 802.761 20.805C804.265 19.157 806.305 18.333 808.881 18.333C811.009 18.333 812.713 18.877 813.993 19.965L813.057 21.501C811.937 20.669 810.553 20.253 808.905 20.253C807.081 20.253 805.585 20.877 804.417 22.125C803.249 23.357 802.665 24.973 802.665 26.973C802.665 28.973 803.265 30.597 804.465 31.845C805.697 33.077 807.281 33.693 809.217 33.693C810.849 33.693 812.281 33.197 813.513 32.205ZM816.99 34.029C815.934 32.941 815.406 31.589 815.406 29.973C815.406 28.341 815.934 26.997 816.99 25.941C818.062 24.869 819.454 24.333 821.166 24.333C822.878 24.333 824.262 24.869 825.318 25.941C826.39 26.997 826.926 28.341 826.926 29.973C826.926 31.605 826.39 32.957 825.318 34.029C824.262 35.085 822.878 35.613 821.166 35.613C819.47 35.613 818.078 35.085 816.99 34.029ZM818.502 27.213C817.798 27.917 817.446 28.837 817.446 29.973C817.446 31.109 817.79 32.029 818.478 32.733C819.182 33.453 820.078 33.813 821.166 33.813C822.254 33.813 823.142 33.461 823.83 32.757C824.534 32.037 824.886 31.109 824.886 29.973C824.886 28.869 824.534 27.949 823.83 27.213C823.142 26.493 822.254 26.133 821.166 26.133C820.078 26.133 819.19 26.493 818.502 27.213ZM831.617 40.173H829.697V24.573H831.617V25.845C832.001 25.397 832.529 25.037 833.201 24.765C833.873 24.477 834.569 24.333 835.289 24.333C836.825 24.333 838.033 24.845 838.913 25.869C839.825 26.877 840.281 28.189 840.281 29.805C840.281 31.453 839.761 32.837 838.721 33.957C837.697 35.061 836.345 35.613 834.665 35.613C833.369 35.613 832.353 35.365 831.617 34.869V40.173ZM834.737 26.133C833.457 26.133 832.417 26.629 831.617 27.621V32.973C832.465 33.533 833.425 33.813 834.497 33.813C835.633 33.813 836.537 33.453 837.209 32.733C837.897 31.997 838.241 31.045 838.241 29.877C838.241 28.741 837.929 27.837 837.305 27.165C836.681 26.477 835.825 26.133 834.737 26.133ZM845.203 26.493H841.243V24.573H851.083V26.493H847.123V35.373H845.203V26.493ZM861.341 27.333L855.101 35.373H853.181V24.573H855.101V32.613L861.341 24.573H863.261V35.373H861.341V27.333ZM868.671 40.173H866.751V24.573H868.671V25.845C869.055 25.397 869.583 25.037 870.255 24.765C870.927 24.477 871.623 24.333 872.343 24.333C873.879 24.333 875.087 24.845 875.967 25.869C876.879 26.877 877.335 28.189 877.335 29.805C877.335 31.453 876.815 32.837 875.775 33.957C874.751 35.061 873.399 35.613 871.719 35.613C870.423 35.613 869.407 35.365 868.671 34.869V40.173ZM871.791 26.133C870.511 26.133 869.471 26.629 868.671 27.621V32.973C869.519 33.533 870.479 33.813 871.551 33.813C872.687 33.813 873.591 33.453 874.263 32.733C874.951 31.997 875.295 31.045 875.295 29.877C875.295 28.741 874.983 27.837 874.359 27.165C873.735 26.477 872.879 26.133 871.791 26.133ZM880.951 34.029C879.895 32.941 879.367 31.589 879.367 29.973C879.367 28.341 879.895 26.997 880.951 25.941C882.023 24.869 883.415 24.333 885.127 24.333C886.839 24.333 888.223 24.869 889.279 25.941C890.351 26.997 890.887 28.341 890.887 29.973C890.887 31.605 890.351 32.957 889.279 34.029C888.223 35.085 886.839 35.613 885.127 35.613C883.431 35.613 882.039 35.085 880.951 34.029ZM882.463 27.213C881.759 27.917 881.407 28.837 881.407 29.973C881.407 31.109 881.751 32.029 882.439 32.733C883.143 33.453 884.039 33.813 885.127 33.813C886.215 33.813 887.103 33.461 887.791 32.757C888.495 32.037 888.847 31.109 888.847 29.973C888.847 28.869 888.495 27.949 887.791 27.213C887.103 26.493 886.215 26.133 885.127 26.133C884.039 26.133 883.151 26.493 882.463 27.213ZM893.658 35.373V24.573C893.738 24.573 893.85 24.573 893.994 24.573C894.138 24.557 894.346 24.549 894.618 24.549C894.89 24.533 895.138 24.525 895.362 24.525C896.546 24.493 897.282 24.477 897.57 24.477C900.674 24.477 902.226 25.405 902.226 27.261C902.226 27.901 902.026 28.453 901.626 28.917C901.226 29.365 900.706 29.637 900.066 29.733V29.781C901.746 30.085 902.586 30.933 902.586 32.325C902.586 34.421 900.93 35.469 897.618 35.469C897.458 35.469 896.754 35.453 895.506 35.421C895.266 35.421 895.002 35.413 894.714 35.397C894.426 35.397 894.202 35.389 894.042 35.373C893.882 35.373 893.754 35.373 893.658 35.373ZM897.882 30.525H895.578V33.837C896.73 33.885 897.466 33.909 897.786 33.909C899.626 33.909 900.546 33.333 900.546 32.181C900.546 31.077 899.658 30.525 897.882 30.525ZM897.714 26.037C897.25 26.037 896.538 26.061 895.578 26.109V29.325H898.002C898.658 29.325 899.186 29.173 899.586 28.869C899.986 28.565 900.186 28.157 900.186 27.645C900.186 26.573 899.362 26.037 897.714 26.037ZM912.453 24.573H914.973L910.245 29.733L915.429 35.373H912.765L907.893 29.853L912.453 24.573ZM907.437 35.373H905.517V24.573H907.437V35.373ZM918.046 26.853L917.542 25.317C918.614 24.661 919.814 24.333 921.142 24.333C922.598 24.333 923.654 24.693 924.31 25.413C924.966 26.133 925.294 27.245 925.294 28.749V35.373H923.47V33.981C922.622 35.021 921.47 35.541 920.014 35.541C919.022 35.541 918.222 35.245 917.614 34.653C917.006 34.045 916.702 33.229 916.702 32.205C916.702 31.149 917.078 30.317 917.83 29.709C918.582 29.085 919.566 28.773 920.782 28.773C921.918 28.773 922.814 29.005 923.47 29.469C923.47 28.253 923.302 27.381 922.966 26.853C922.63 26.325 921.982 26.061 921.022 26.061C920.046 26.061 919.054 26.325 918.046 26.853ZM920.686 33.813C921.758 33.813 922.686 33.349 923.47 32.421V31.053C922.798 30.573 921.99 30.333 921.046 30.333C920.39 30.333 919.838 30.493 919.39 30.813C918.958 31.117 918.742 31.549 918.742 32.109C918.742 32.637 918.91 33.053 919.246 33.357C919.598 33.661 920.078 33.813 920.686 33.813Z" fill="white"/>
<path d="M805.305 13.3737C812.972 7.8737 846.503 -2.81148 890.503 2.38852C945.503 8.88852 945.503 30.8889 941.503 37.8889C937.503 44.8889 901.805 53.8733 874.305 54.3733C846.805 54.8733 825.003 58.3889 801.003 50.3889C781.803 43.9889 786.503 27.3889 791.003 21.3889L805.305 8.37328" stroke="white" stroke-width="1.5"/>
<path d="M926.758 326.724C925.59 326.724 924.502 326.476 923.494 325.98C922.502 325.484 921.758 324.852 921.262 324.084L922.39 322.716C922.918 323.34 923.574 323.844 924.358 324.228C925.158 324.612 925.918 324.804 926.638 324.804C927.79 324.804 928.71 324.516 929.398 323.94C930.102 323.364 930.454 322.58 930.454 321.588C930.454 320.756 930.166 320.092 929.59 319.596C929.014 319.1 928.206 318.852 927.166 318.852H925.222V316.932H927.022C927.758 316.932 928.406 316.668 928.966 316.14C929.526 315.58 929.806 314.9 929.806 314.1C929.806 313.236 929.526 312.564 928.966 312.084C928.406 311.604 927.67 311.364 926.758 311.364C925.27 311.364 923.998 311.988 922.942 313.236L921.742 311.892C922.318 311.124 923.07 310.524 923.998 310.092C924.926 309.66 925.918 309.444 926.974 309.444C928.462 309.444 929.646 309.844 930.526 310.644C931.406 311.428 931.846 312.516 931.846 313.908C931.846 314.692 931.63 315.436 931.198 316.14C930.782 316.828 930.19 317.364 929.422 317.748V317.82C930.398 318.012 931.15 318.468 931.678 319.188C932.222 319.892 932.494 320.756 932.494 321.78C932.494 323.3 931.934 324.5 930.814 325.38C929.694 326.276 928.342 326.724 926.758 326.724ZM936.481 317.964L935.977 316.428C937.049 315.772 938.249 315.444 939.577 315.444C941.033 315.444 942.089 315.804 942.745 316.524C943.401 317.244 943.729 318.356 943.729 319.86V326.484H941.905V325.092C941.057 326.132 939.905 326.652 938.449 326.652C937.457 326.652 936.657 326.356 936.049 325.764C935.441 325.156 935.137 324.34 935.137 323.316C935.137 322.26 935.513 321.428 936.265 320.82C937.017 320.196 938.001 319.884 939.217 319.884C940.353 319.884 941.249 320.116 941.905 320.58C941.905 319.364 941.737 318.492 941.401 317.964C941.065 317.436 940.417 317.172 939.457 317.172C938.481 317.172 937.489 317.436 936.481 317.964ZM939.121 324.924C940.193 324.924 941.121 324.46 941.905 323.532V322.164C941.233 321.684 940.425 321.444 939.481 321.444C938.825 321.444 938.273 321.604 937.825 321.924C937.393 322.228 937.177 322.66 937.177 323.22C937.177 323.748 937.345 324.164 937.681 324.468C938.033 324.772 938.513 324.924 939.121 324.924ZM953.88 315.684H956.4L951.672 320.844L956.856 326.484H954.192L949.32 320.964L953.88 315.684ZM948.864 326.484H946.944V315.684H948.864V326.484ZM968.139 326.484H966.219V317.604H962.427L962.307 319.428C962.179 320.916 961.987 322.156 961.731 323.148C961.491 324.124 961.171 324.86 960.771 325.356C960.387 325.836 959.979 326.172 959.547 326.364C959.115 326.54 958.587 326.628 957.963 326.628L957.819 324.756C957.995 324.772 958.179 324.748 958.371 324.684C958.563 324.604 958.771 324.444 958.995 324.204C959.235 323.964 959.443 323.644 959.619 323.244C959.811 322.844 959.979 322.284 960.123 321.564C960.283 320.828 960.387 319.988 960.435 319.044L960.627 315.684H968.139V326.484ZM972.176 317.964L971.672 316.428C972.744 315.772 973.944 315.444 975.272 315.444C976.728 315.444 977.784 315.804 978.44 316.524C979.096 317.244 979.424 318.356 979.424 319.86V326.484H977.6V325.092C976.752 326.132 975.6 326.652 974.144 326.652C973.152 326.652 972.352 326.356 971.744 325.764C971.136 325.156 970.832 324.34 970.832 323.316C970.832 322.26 971.208 321.428 971.96 320.82C972.712 320.196 973.696 319.884 974.912 319.884C976.048 319.884 976.944 320.116 977.6 320.58C977.6 319.364 977.432 318.492 977.096 317.964C976.76 317.436 976.112 317.172 975.152 317.172C974.176 317.172 973.184 317.436 972.176 317.964ZM974.816 324.924C975.888 324.924 976.816 324.46 977.6 323.532V322.164C976.928 321.684 976.12 321.444 975.176 321.444C974.52 321.444 973.968 321.604 973.52 321.924C973.088 322.228 972.872 322.66 972.872 323.22C972.872 323.748 973.04 324.164 973.376 324.468C973.728 324.772 974.208 324.924 974.816 324.924ZM982.951 329.124H981.151V324.684H982.495C982.895 324.188 983.247 323.388 983.551 322.284C983.855 321.164 984.055 319.916 984.151 318.54L984.319 315.684H991.687V324.684H993.487V329.124H991.687V326.484H982.951V329.124ZM986.119 317.484L985.999 319.284C985.903 320.484 985.711 321.58 985.423 322.572C985.135 323.564 984.839 324.268 984.535 324.684H989.767V317.484H986.119ZM1002.51 315.684H1005.03L1000.3 320.844L1005.49 326.484H1002.82L997.953 320.964L1002.51 315.684ZM997.497 326.484H995.577V315.684H997.497V326.484ZM1015.69 318.444L1009.45 326.484H1007.53V315.684H1009.45V323.724L1015.69 315.684H1017.61V326.484H1015.69V318.444Z" fill="white"/>
<path d="M917.302 304.485C924.969 298.985 951.302 289.285 995.302 294.485C1050.3 300.985 1049.3 320.484 1045.3 327.484C1041.3 334.484 1013.8 344.984 986.302 345.484C958.802 345.984 941.302 346.984 917.302 338.984C898.102 332.584 902.302 318.984 906.802 312.984L917.302 299.484" stroke="white" stroke-width="1.5"/>
<path d="M162.022 212.484H159.982V197.604H150.862V212.484H148.822V195.684H162.022V212.484ZM167.128 211.14C166.072 210.052 165.544 208.7 165.544 207.084C165.544 205.452 166.072 204.108 167.128 203.052C168.2 201.98 169.592 201.444 171.304 201.444C173.016 201.444 174.4 201.98 175.456 203.052C176.528 204.108 177.064 205.452 177.064 207.084C177.064 208.716 176.528 210.068 175.456 211.14C174.4 212.196 173.016 212.724 171.304 212.724C169.608 212.724 168.216 212.196 167.128 211.14ZM168.64 204.324C167.936 205.028 167.584 205.948 167.584 207.084C167.584 208.22 167.928 209.14 168.616 209.844C169.32 210.564 170.216 210.924 171.304 210.924C172.392 210.924 173.28 210.572 173.968 209.868C174.672 209.148 175.024 208.22 175.024 207.084C175.024 205.98 174.672 205.06 173.968 204.324C173.28 203.604 172.392 203.244 171.304 203.244C170.216 203.244 169.328 203.604 168.64 204.324ZM179.725 215.124H177.925V210.684H179.269C179.669 210.188 180.021 209.388 180.325 208.284C180.629 207.164 180.829 205.916 180.925 204.54L181.093 201.684H188.461V210.684H190.261V215.124H188.461V212.484H179.725V215.124ZM182.893 203.484L182.773 205.284C182.677 206.484 182.485 207.58 182.197 208.572C181.909 209.564 181.613 210.268 181.309 210.684H186.541V203.484H182.893ZM202.07 212.484H200.15V203.484H194.27V212.484H192.35V201.684H202.07V212.484ZM213.705 204.444L207.465 212.484H205.545V201.684H207.465V209.724L213.705 201.684H215.625V212.484H213.705V204.444ZM227.42 209.532L228.332 210.924C227.404 212.124 226.02 212.724 224.18 212.724C222.452 212.724 221.052 212.212 219.98 211.188C218.924 210.164 218.396 208.796 218.396 207.084C218.396 205.5 218.916 204.164 219.956 203.076C220.996 201.988 222.3 201.444 223.868 201.444C225.756 201.444 227.172 201.916 228.116 202.86L227.228 204.372C226.396 203.62 225.364 203.244 224.132 203.244C223.124 203.244 222.252 203.612 221.516 204.348C220.796 205.068 220.436 205.98 220.436 207.084C220.436 208.252 220.804 209.18 221.54 209.868C222.292 210.572 223.22 210.924 224.324 210.924C225.572 210.924 226.604 210.46 227.42 209.532ZM237.77 201.684H240.29L235.562 206.844L240.746 212.484H238.082L233.21 206.964L237.77 201.684ZM232.754 212.484H230.834V201.684H232.754V212.484ZM243.364 203.964L242.86 202.428C243.932 201.772 245.132 201.444 246.46 201.444C247.916 201.444 248.972 201.804 249.628 202.524C250.284 203.244 250.612 204.356 250.612 205.86V212.484H248.788V211.092C247.94 212.132 246.788 212.652 245.332 212.652C244.34 212.652 243.54 212.356 242.932 211.764C242.324 211.156 242.02 210.34 242.02 209.316C242.02 208.26 242.396 207.428 243.148 206.82C243.9 206.196 244.884 205.884 246.1 205.884C247.236 205.884 248.132 206.116 248.788 206.58C248.788 205.364 248.62 204.492 248.284 203.964C247.948 203.436 247.3 203.172 246.34 203.172C245.364 203.172 244.372 203.436 243.364 203.964ZM246.004 210.924C247.076 210.924 248.004 210.46 248.788 209.532V208.164C248.116 207.684 247.308 207.444 246.364 207.444C245.708 207.444 245.156 207.604 244.708 207.924C244.276 208.228 244.06 208.66 244.06 209.22C244.06 209.748 244.228 210.164 244.564 210.468C244.916 210.772 245.396 210.924 246.004 210.924Z" fill="white"/>
<path d="M143.302 220.329C150.969 225.829 177.302 235.529 221.302 230.329C276.302 223.829 275.302 204.329 271.302 197.329C267.302 190.329 239.802 179.829 212.302 179.329C184.802 178.829 167.302 177.829 143.302 185.829C124.102 192.229 128.302 205.829 132.802 211.829L143.302 225.329" stroke="white" stroke-width="1.5"/>
<path d="M1064.9 148.132V154.588H1062.86V137.788C1063.54 137.788 1064.25 137.78 1065 137.764C1065.75 137.748 1066.5 137.74 1067.26 137.74C1069.46 137.74 1071.05 138.236 1072.01 139.228C1072.98 140.204 1073.47 141.444 1073.47 142.948C1073.47 144.404 1072.94 145.652 1071.89 146.692C1070.86 147.716 1069.38 148.228 1067.42 148.228C1066.4 148.228 1065.56 148.196 1064.9 148.132ZM1067.45 139.66C1067.16 139.66 1066.31 139.676 1064.9 139.708V146.188C1065.91 146.268 1066.73 146.308 1067.35 146.308C1068.58 146.308 1069.55 146.012 1070.26 145.42C1070.96 144.812 1071.31 143.98 1071.31 142.924C1071.31 141.884 1070.98 141.084 1070.33 140.524C1069.69 139.948 1068.73 139.66 1067.45 139.66ZM1083.58 151.9L1084.18 153.412C1083.14 154.356 1081.78 154.828 1080.12 154.828C1078.36 154.828 1076.96 154.316 1075.92 153.292C1074.86 152.268 1074.34 150.9 1074.34 149.188C1074.34 147.572 1074.83 146.228 1075.82 145.156C1076.8 144.084 1078.16 143.548 1079.9 143.548C1081.34 143.548 1082.54 144.012 1083.48 144.94C1084.44 145.852 1084.92 147.036 1084.92 148.492C1084.92 148.956 1084.88 149.388 1084.8 149.788H1076.5C1076.58 150.796 1076.95 151.588 1077.62 152.164C1078.31 152.74 1079.19 153.028 1080.26 153.028C1081.67 153.028 1082.78 152.652 1083.58 151.9ZM1079.81 145.348C1078.86 145.348 1078.08 145.612 1077.46 146.14C1076.85 146.668 1076.49 147.364 1076.38 148.228H1082.93C1082.88 147.332 1082.58 146.628 1082.02 146.116C1081.47 145.604 1080.74 145.348 1079.81 145.348ZM1097.24 154.588H1095.32V145.588H1089.44V154.588H1087.52V143.788H1097.24V154.588ZM1101.58 153.244C1100.53 152.156 1100 150.804 1100 149.188C1100 147.556 1100.53 146.212 1101.58 145.156C1102.66 144.084 1104.05 143.548 1105.76 143.548C1107.47 143.548 1108.86 144.084 1109.91 145.156C1110.98 146.212 1111.52 147.556 1111.52 149.188C1111.52 150.82 1110.98 152.172 1109.91 153.244C1108.86 154.3 1107.47 154.828 1105.76 154.828C1104.06 154.828 1102.67 154.3 1101.58 153.244ZM1103.1 146.428C1102.39 147.132 1102.04 148.052 1102.04 149.188C1102.04 150.324 1102.38 151.244 1103.07 151.948C1103.78 152.668 1104.67 153.028 1105.76 153.028C1106.85 153.028 1107.74 152.676 1108.42 151.972C1109.13 151.252 1109.48 150.324 1109.48 149.188C1109.48 148.084 1109.13 147.164 1108.42 146.428C1107.74 145.708 1106.85 145.348 1105.76 145.348C1104.67 145.348 1103.78 145.708 1103.1 146.428ZM1122.59 151.636L1123.51 153.028C1122.58 154.228 1121.19 154.828 1119.35 154.828C1117.63 154.828 1116.23 154.316 1115.15 153.292C1114.1 152.268 1113.57 150.9 1113.57 149.188C1113.57 147.604 1114.09 146.268 1115.13 145.18C1116.17 144.092 1117.47 143.548 1119.04 143.548C1120.93 143.548 1122.35 144.02 1123.29 144.964L1122.4 146.476C1121.57 145.724 1120.54 145.348 1119.31 145.348C1118.3 145.348 1117.43 145.716 1116.69 146.452C1115.97 147.172 1115.61 148.084 1115.61 149.188C1115.61 150.356 1115.98 151.284 1116.71 151.972C1117.47 152.676 1118.39 153.028 1119.5 153.028C1120.75 153.028 1121.78 152.564 1122.59 151.636ZM1128.46 145.708H1124.5V143.788H1134.34V145.708H1130.38V154.588H1128.46V145.708Z" fill="white"/>
<path d="M1110.04 130.104C1120.04 130.937 1141.44 134.204 1147.04 140.604C1154.04 148.604 1153.54 158.104 1145.04 162.604C1136.54 167.104 1123.04 168.104 1112.54 168.104C1102.04 168.104 1086.54 170.104 1074.54 168.104C1062.54 166.104 1055.04 167.104 1049.54 157.104C1044.04 147.104 1048.04 140.604 1056.04 133.104C1062.44 127.104 1079.21 126.77 1087.54 125.103C1094.54 123.703 1105.54 123.104 1120.04 126.604" stroke="white" stroke-width="1.5"/>
<path d="M36.12 330.708H30.24V328.788H44.04V330.708H38.16V345.588H36.12V330.708ZM51.3574 342.9L51.9574 344.412C50.9174 345.356 49.5654 345.828 47.9014 345.828C46.1414 345.828 44.7414 345.316 43.7014 344.292C42.6454 343.268 42.1174 341.9 42.1174 340.188C42.1174 338.572 42.6134 337.228 43.6054 336.156C44.5814 335.084 45.9414 334.548 47.6854 334.548C49.1254 334.548 50.3174 335.012 51.2614 335.94C52.2214 336.852 52.7014 338.036 52.7014 339.492C52.7014 339.956 52.6614 340.388 52.5814 340.788H44.2774C44.3574 341.796 44.7334 342.588 45.4054 343.164C46.0934 343.74 46.9734 344.028 48.0454 344.028C49.4534 344.028 50.5574 343.652 51.3574 342.9ZM47.5894 336.348C46.6454 336.348 45.8614 336.612 45.2374 337.14C44.6294 337.668 44.2694 338.364 44.1574 339.228H50.7094C50.6614 338.332 50.3574 337.628 49.7974 337.116C49.2534 336.604 48.5174 336.348 47.5894 336.348ZM57.2261 345.588H55.3061V334.788H62.1461V336.588H57.2261V345.588ZM72.1614 337.548L65.9214 345.588H64.0014V334.788H65.9214V342.828L72.1614 334.788H74.0814V345.588H72.1614V337.548Z" fill="white"/>
<path d="M64.0419 321.104C74.0419 321.937 95.4419 325.204 101.042 331.604C108.042 339.604 107.542 349.104 99.0419 353.604C90.5419 358.104 77.0419 359.104 66.5419 359.104C56.0419 359.104 40.5419 361.104 28.5419 359.104C16.5419 357.104 9.04185 358.104 3.54185 348.104C-1.95815 338.104 2.04185 331.604 10.0419 324.104C16.4419 318.104 33.2086 317.77 41.542 316.103C48.542 314.703 59.542 314.104 74.042 317.604" stroke="white" stroke-width="1.5"/>
<path d="M450.72 86.5879H448.68V71.7079H439.56V86.5879H437.52V69.7879H450.72V86.5879ZM455.826 85.2439C454.77 84.1559 454.242 82.8039 454.242 81.1879C454.242 79.5559 454.77 78.2119 455.826 77.1559C456.898 76.0839 458.29 75.5479 460.002 75.5479C461.714 75.5479 463.098 76.0839 464.154 77.1559C465.226 78.2119 465.762 79.5559 465.762 81.1879C465.762 82.8199 465.226 84.1719 464.154 85.2439C463.098 86.2999 461.714 86.8279 460.002 86.8279C458.306 86.8279 456.914 86.2999 455.826 85.2439ZM457.338 78.4279C456.634 79.1319 456.282 80.0519 456.282 81.1879C456.282 82.3239 456.626 83.2439 457.314 83.9479C458.018 84.6679 458.914 85.0279 460.002 85.0279C461.09 85.0279 461.978 84.6759 462.666 83.9719C463.37 83.2519 463.722 82.3239 463.722 81.1879C463.722 80.0839 463.37 79.1639 462.666 78.4279C461.978 77.7079 461.09 77.3479 460.002 77.3479C458.914 77.3479 458.026 77.7079 457.338 78.4279ZM476.693 78.5479L470.453 86.5879H468.533V75.7879H470.453V83.8279L476.693 75.7879H478.613V86.5879H476.693V78.5479ZM490.407 83.6359L491.319 85.0279C490.391 86.2279 489.007 86.8279 487.167 86.8279C485.439 86.8279 484.039 86.3159 482.967 85.2919C481.911 84.2679 481.383 82.8999 481.383 81.1879C481.383 79.6039 481.903 78.2679 482.943 77.1799C483.983 76.0919 485.287 75.5479 486.855 75.5479C488.743 75.5479 490.159 76.0199 491.103 76.9639L490.215 78.4759C489.383 77.7239 488.351 77.3479 487.119 77.3479C486.111 77.3479 485.239 77.7159 484.503 78.4519C483.783 79.1719 483.423 80.0839 483.423 81.1879C483.423 82.3559 483.791 83.2839 484.527 83.9719C485.279 84.6759 486.207 85.0279 487.311 85.0279C488.559 85.0279 489.591 84.5639 490.407 83.6359ZM500.758 75.7879H503.278L498.55 80.9479L503.734 86.5879H501.07L496.198 81.0679L500.758 75.7879ZM495.742 86.5879H493.822V75.7879H495.742V86.5879Z" fill="white"/>
<path d="M481.042 62.1037C491.042 62.937 512.442 66.2037 518.042 72.6037C525.042 80.6037 524.542 90.1037 516.042 94.6037C507.542 99.1037 494.042 100.104 483.542 100.104C473.042 100.104 457.542 102.104 445.542 100.104C433.542 98.1037 426.042 99.1037 420.542 89.1037C415.042 79.1037 419.042 72.6037 427.042 65.1037C433.442 59.1037 450.209 58.7699 458.542 57.1032C465.542 55.7031 476.542 55.1035 491.042 58.6035" stroke="white" stroke-width="1.5"/>
</svg>
