<svg width="145" height="145" viewBox="0 0 145 145" fill="none" xmlns="http://www.w3.org/2000/svg">
<rect width="145" height="145" rx="20" fill="#FABBC1"/>
<path d="M113.943 34H93.4317C92.2954 34 91.3744 34.921 91.3744 36.0573C91.3744 37.1936 92.2954 38.1146 93.4317 38.1146H109.008L68.9909 78.5146C68.2235 79.3271 68.2444 80.6025 69.0375 81.3892C69.8307 82.176 71.1069 82.1848 71.9121 81.4109L111.885 41.0567V56.5683C111.885 57.7047 112.806 58.6256 113.943 58.6256C115.079 58.6256 116 57.7047 116 56.5683V36.0573C116 34.921 115.079 34 113.943 34Z" fill="black"/>
<path d="M103.684 78.1268C102.548 78.1268 101.627 79.0477 101.627 80.1841V102.713C101.623 106.12 98.8626 108.881 95.4552 108.885H47.2865C43.8791 108.881 41.1186 106.12 41.1146 102.713V54.5443C41.1186 51.1369 43.8791 48.3764 47.2865 48.3724H69.8154C70.9517 48.3724 71.8727 47.4514 71.8727 46.3151C71.8727 45.1788 70.9517 44.2578 69.8154 44.2578H47.2865C41.608 44.2642 37.0064 48.8658 37 54.5443V102.713C37.0064 108.391 41.608 112.993 47.2865 112.999H95.4552C101.134 112.993 105.735 108.391 105.742 102.713V80.1841C105.742 79.0477 104.821 78.1268 103.684 78.1268Z" fill="black"/>
</svg>
