<svg width="385" height="379" viewBox="0 0 385 379" fill="none" xmlns="http://www.w3.org/2000/svg">
<path d="M345.103 147.953C354.693 183.974 351.496 222.207 336.057 256.136C320.619 290.065 293.893 317.591 260.434 334.024C226.976 350.457 188.854 354.781 152.566 346.258C116.277 337.735 84.0654 316.893 61.4205 287.283C38.7756 257.674 27.098 221.128 28.3774 183.874C29.6569 146.62 43.8142 110.961 68.4371 82.9749C93.0601 54.9885 126.625 36.4056 163.413 30.3925C200.201 24.3794 237.937 31.3081 270.189 49.998L189.404 189.404L345.103 147.953Z" fill="#5920E9"/>
<path d="M290.136 32.0555C309.461 42.6872 326.397 57.1734 339.896 74.617C353.394 92.0605 363.168 112.09 368.611 133.464L212.472 173.224L290.136 32.0555Z" fill="#C5D9FF" fill-opacity="0.4"/>
<path d="M101.26 245.323H102.196C103.276 245.323 104.212 244.915 105.004 244.099C105.82 243.283 106.228 242.311 106.228 241.183C106.228 239.935 105.796 238.939 104.932 238.195C104.068 237.427 102.976 237.043 101.656 237.043C100.36 237.043 99.292 237.427 98.452 238.195C97.612 238.963 97.192 239.959 97.192 241.183C97.192 242.311 97.6 243.283 98.416 244.099C99.232 244.915 100.18 245.323 101.26 245.323ZM102.16 248.203H101.368C100 248.203 98.824 248.623 97.84 249.463C96.88 250.279 96.4 251.347 96.4 252.667C96.4 253.987 96.892 255.079 97.876 255.943C98.884 256.783 100.156 257.203 101.692 257.203C103.3 257.203 104.584 256.795 105.544 255.979C106.528 255.139 107.02 254.035 107.02 252.667C106.996 251.323 106.528 250.243 105.616 249.427C104.704 248.611 103.552 248.203 102.16 248.203ZM93.34 253.207C93.34 251.695 93.772 250.363 94.636 249.211C95.5 248.035 96.652 247.243 98.092 246.835V246.727C96.94 246.343 95.992 245.599 95.248 244.495C94.504 243.367 94.132 242.119 94.132 240.751C94.132 238.807 94.852 237.223 96.292 235.999C97.756 234.775 99.556 234.163 101.692 234.163C103.828 234.163 105.628 234.775 107.092 235.999C108.556 237.223 109.288 238.807 109.288 240.751C109.288 242.023 108.904 243.211 108.136 244.315C107.392 245.395 106.396 246.187 105.148 246.691V246.799C106.588 247.039 107.764 247.735 108.676 248.887C109.612 250.015 110.08 251.383 110.08 252.991C110.08 255.199 109.276 256.927 107.668 258.175C106.036 259.447 104.056 260.083 101.728 260.083C99.352 260.083 97.36 259.459 95.752 258.211C94.144 256.963 93.34 255.295 93.34 253.207ZM115.182 241.399L113.67 239.059L119.718 234.379H121.734V259.723H118.854V238.519L115.182 241.399ZM127.995 258.067C127.995 257.491 128.175 257.035 128.535 256.699C128.895 256.339 129.399 256.159 130.047 256.159C130.815 256.159 131.439 256.483 131.919 257.131C132.399 257.755 132.639 258.595 132.639 259.651C132.639 260.947 132.279 262.063 131.559 262.999C130.863 263.959 129.903 264.619 128.679 264.979L127.887 263.611C129.135 263.227 129.903 262.423 130.191 261.199C130.359 260.383 130.347 259.783 130.155 259.399C130.011 259.615 129.747 259.723 129.363 259.723C129.003 259.723 128.679 259.567 128.391 259.255C128.127 258.919 127.995 258.523 127.995 258.067ZM151.058 259.723H135.686V257.383C138.95 254.191 141.35 251.647 142.886 249.751C145.598 246.343 146.954 243.487 146.954 241.183C146.954 239.983 146.582 239.011 145.838 238.267C145.118 237.499 144.122 237.115 142.85 237.115C141.746 237.115 140.774 237.475 139.934 238.195C139.118 238.891 138.59 239.875 138.35 241.147L135.902 240.139C136.19 238.339 136.994 236.911 138.314 235.855C139.658 234.775 141.254 234.235 143.102 234.235C145.31 234.235 147.014 234.871 148.214 236.143C149.414 237.415 150.014 238.903 150.014 240.607C150.014 243.847 148.466 247.291 145.37 250.939C143.978 252.571 142.862 253.795 142.022 254.611C141.302 255.331 140.438 256.135 139.43 257.023H151.058V259.723ZM156.543 244.819C155.295 243.667 154.671 242.191 154.671 240.391C154.671 238.591 155.283 237.127 156.507 235.999C157.779 234.871 159.363 234.307 161.259 234.307C163.155 234.307 164.727 234.871 165.975 235.999C167.223 237.103 167.847 238.567 167.847 240.391C167.847 242.191 167.223 243.667 165.975 244.819C164.703 245.947 163.131 246.511 161.259 246.511C159.387 246.511 157.815 245.947 156.543 244.819ZM157.371 240.391C157.371 241.495 157.743 242.407 158.487 243.127C159.255 243.823 160.179 244.171 161.259 244.171C162.363 244.171 163.287 243.823 164.031 243.127C164.775 242.407 165.147 241.495 165.147 240.391C165.147 239.311 164.775 238.423 164.031 237.727C163.287 237.007 162.363 236.647 161.259 236.647C160.155 236.647 159.231 237.007 158.487 237.727C157.743 238.423 157.371 239.311 157.371 240.391ZM171.699 258.247C170.451 257.095 169.827 255.619 169.827 253.819C169.827 252.019 170.439 250.555 171.663 249.427C172.935 248.299 174.519 247.735 176.415 247.735C178.311 247.735 179.883 248.299 181.131 249.427C182.379 250.531 183.003 251.995 183.003 253.819C183.003 255.619 182.379 257.095 181.131 258.247C179.859 259.375 178.287 259.939 176.415 259.939C174.543 259.939 172.971 259.375 171.699 258.247ZM172.527 253.819C172.527 254.923 172.899 255.835 173.643 256.555C174.411 257.251 175.335 257.599 176.415 257.599C177.519 257.599 178.443 257.251 179.187 256.555C179.931 255.835 180.303 254.923 180.303 253.819C180.303 252.739 179.931 251.851 179.187 251.155C178.443 250.435 177.519 250.075 176.415 250.075C175.311 250.075 174.387 250.435 173.643 251.155C172.899 251.851 172.527 252.739 172.527 253.819ZM160.467 260.083L158.775 258.895L177.279 234.163L178.935 235.387L160.467 260.083Z" fill="white"/>
</svg>
