<svg width="187" height="205" viewBox="0 0 187 205" fill="none" xmlns="http://www.w3.org/2000/svg">
<path d="M61.0226 22.7998H20.5586V1.19984H86.7986V15.8878L52.6706 102H29.0546L61.0226 22.7998Z" fill="#5920E9"/>
<path d="M160.493 102H95.4048V84.7198C95.5008 84.6238 97.8528 82.3678 102.461 77.9518L110.381 70.0318C112.109 68.1118 114.413 65.7119 117.293 62.8319C120.557 59.3759 122.861 56.6398 124.205 54.6238L128.957 47.2799C132.317 42.1918 133.997 36.9599 133.997 31.5839C133.997 24.9599 130.925 21.6478 124.781 21.6478C121.997 21.6478 119.789 22.5598 118.157 24.3838C116.525 26.1118 115.037 28.7998 113.693 32.4478L95.6928 24.2398C97.4208 16.6558 100.973 10.7518 106.349 6.52784C111.821 2.20785 118.829 0.0478516 127.373 0.0478516C136.685 0.0478516 143.933 2.68785 149.117 7.96784C154.397 13.2478 157.037 19.6798 157.037 27.2638C157.037 46.3678 145.805 64.5598 123.341 81.8398H160.493V102Z" fill="#5920E9"/>
<path d="M24.5698 179.879L5.84985 203.999H0.0898438V171.599H5.84985V195.719L24.5698 171.599H30.3298V203.999H24.5698V179.879Z" fill="white"/>
<path d="M51.5288 204.719C49.0808 204.719 46.4888 204.311 43.7528 203.495C41.1128 202.631 39.2408 201.575 38.1368 200.327L41.0888 196.007C42.3848 197.063 43.9208 197.927 45.6968 198.599C47.5208 199.223 49.1768 199.535 50.6648 199.535C53.1608 199.535 55.2008 199.055 56.7848 198.095C58.3688 197.087 59.1608 195.791 59.1608 194.207C59.1608 192.863 58.5848 191.831 57.4328 191.111C56.3288 190.391 54.7928 190.031 52.8248 190.031H47.3528V185.351H52.4648C54.0968 185.351 55.4408 184.919 56.4968 184.055C57.5528 183.143 58.0808 182.039 58.0808 180.743C58.0808 179.303 57.4568 178.175 56.2088 177.359C54.9608 176.495 53.2808 176.063 51.1688 176.063C47.7608 176.063 44.5208 177.263 41.4488 179.663L39.2168 175.199C40.5128 173.855 42.3128 172.799 44.6168 172.031C46.9688 171.263 49.4408 170.879 52.0328 170.879C55.8728 170.879 58.8488 171.647 60.9608 173.183C63.1208 174.719 64.2008 176.855 64.2008 179.591C64.2008 183.335 62.3048 185.879 58.5128 187.223V187.367C60.6248 187.607 62.2808 188.447 63.4808 189.887C64.6808 191.279 65.2808 192.983 65.2808 194.999C65.2808 197.975 64.0088 200.351 61.4648 202.127C58.9688 203.855 55.6568 204.719 51.5288 204.719Z" fill="white"/>
<path d="M90.5905 167.351L87.5665 162.671L99.6625 153.311H103.694V203.999H97.9345V161.591L90.5905 167.351Z" fill="white"/>
<path d="M119.456 178.943L122.624 153.599H145.376V159.359H127.664L125.792 172.967C126.944 172.631 128.288 172.463 129.824 172.463C134.48 172.463 138.296 173.903 141.272 176.783C144.248 179.615 145.736 183.383 145.736 188.087C145.736 193.127 144.152 197.159 140.984 200.183C137.816 203.207 133.928 204.719 129.32 204.719C126.344 204.719 123.536 204.047 120.896 202.703C118.256 201.359 116.24 199.487 114.848 197.087L118.16 192.839C119.312 194.711 120.92 196.199 122.984 197.303C125.096 198.407 127.256 198.959 129.464 198.959C132.344 198.959 134.744 197.951 136.664 195.935C138.632 193.871 139.616 191.327 139.616 188.303C139.616 185.231 138.488 182.687 136.232 180.671C134.024 178.655 131.072 177.647 127.376 177.647C124.352 177.647 121.712 178.079 119.456 178.943Z" fill="white"/>
<path d="M186.101 178.799C186.101 186.959 184.733 193.295 181.997 197.807C179.309 202.319 175.277 204.575 169.901 204.575C164.477 204.575 160.349 202.271 157.517 197.663C154.781 193.007 153.413 186.719 153.413 178.799C153.413 170.927 154.757 164.663 157.445 160.007C160.181 155.351 164.285 153.023 169.757 153.023C175.277 153.023 179.357 155.351 181.997 160.007C184.733 164.615 186.101 170.879 186.101 178.799ZM169.901 199.175C173.405 199.175 175.949 197.495 177.533 194.135C179.165 190.775 179.981 185.663 179.981 178.799C179.981 171.983 179.141 166.895 177.461 163.535C175.829 160.127 173.261 158.423 169.757 158.423C162.941 158.423 159.533 165.215 159.533 178.799C159.533 192.383 162.989 199.175 169.901 199.175Z" fill="white"/>
</svg>
