<svg width="392" height="206" viewBox="0 0 392 206" fill="none" xmlns="http://www.w3.org/2000/svg">
<path d="M41.2198 23.7997H0.755859V2.19967H66.9958V16.8877L32.8679 103H9.25186L41.2198 23.7997Z" fill="#5920E9"/>
<path d="M80.3541 58.6477L87.2661 2.19967H137.09V23.7997H106.274L104.258 36.6157H107.714C116.738 36.6157 124.226 39.5917 130.178 45.5437C136.226 51.3997 139.25 59.3677 139.25 69.4477C139.25 80.3917 135.794 89.0317 128.882 95.3677C121.874 101.608 113.09 104.728 102.53 104.728C96.8661 104.728 91.2021 103.528 85.5381 101.128C79.8741 98.6317 75.6021 95.3197 72.7221 91.1917L84.8181 74.6317C86.8341 77.0317 89.5701 79.0477 93.0261 80.6797C96.5781 82.3117 99.9381 83.1277 103.106 83.1277C106.946 83.1277 110.066 81.9757 112.466 79.6717C114.962 77.2717 116.21 74.1997 116.21 70.4557C116.21 66.1357 114.53 62.6797 111.17 60.0877C107.906 57.3997 103.394 56.0557 97.6341 56.0557C89.6661 56.0557 83.9061 56.9197 80.3541 58.6477Z" fill="#5920E9"/>
<path d="M150.73 89.1757C150.73 85.6237 152.122 82.5037 154.906 79.8157C157.69 77.0317 161.194 75.6397 165.418 75.6397C169.162 75.6397 172.33 77.0317 174.922 79.8157C177.61 82.5037 178.954 85.6237 178.954 89.1757C178.954 93.2077 177.658 96.6637 175.066 99.5437C172.57 102.424 169.354 103.864 165.418 103.864C161.098 103.864 157.546 102.472 154.762 99.6877C152.074 96.8077 150.73 93.3037 150.73 89.1757Z" fill="#5920E9"/>
<path d="M254.174 103H189.086V85.7197C189.182 85.6237 191.534 83.3677 196.142 78.9517L204.062 71.0317C205.79 69.1117 208.094 66.7117 210.974 63.8317C214.238 60.3757 216.542 57.6397 217.886 55.6237L222.638 48.2797C225.998 43.1917 227.678 37.9597 227.678 32.5837C227.678 25.9597 224.606 22.6477 218.462 22.6477C215.678 22.6477 213.47 23.5597 211.838 25.3837C210.206 27.1117 208.718 29.7997 207.374 33.4477L189.374 25.2397C191.102 17.6557 194.654 11.7517 200.03 7.52767C205.502 3.20768 212.51 1.04768 221.054 1.04768C230.366 1.04768 237.614 3.68768 242.798 8.96767C248.078 14.2477 250.718 20.6797 250.718 28.2637C250.718 47.3677 239.486 65.5597 217.022 82.8397H254.174V103Z" fill="#5920E9"/>
<path d="M272.817 46.9837C267.153 41.8957 264.321 35.3197 264.321 27.2557C264.321 19.0957 267.153 12.6157 272.817 7.81568C278.481 2.91968 285.777 0.47168 294.705 0.47168C303.633 0.47168 310.929 2.91968 316.593 7.81568C322.257 12.6157 325.089 19.0957 325.089 27.2557C325.089 35.3197 322.257 41.8957 316.593 46.9837C310.929 51.8797 303.633 54.3277 294.705 54.3277C285.777 54.3277 278.481 51.8797 272.817 46.9837ZM284.481 27.2557C284.481 30.3277 285.441 32.7277 287.361 34.4557C289.281 36.1837 291.729 37.0477 294.705 37.0477C297.873 37.0477 300.369 36.1837 302.193 34.4557C304.017 32.7277 304.929 30.3277 304.929 27.2557C304.929 24.3757 303.969 22.0717 302.049 20.3437C300.225 18.6157 297.777 17.7517 294.705 17.7517C291.633 17.7517 289.137 18.6157 287.217 20.3437C285.393 22.0717 284.481 24.3757 284.481 27.2557ZM339.489 97.3837C333.825 92.2957 330.993 85.7197 330.993 77.6557C330.993 69.4957 333.825 63.0157 339.489 58.2157C345.057 53.3197 352.353 50.8717 361.377 50.8717C370.401 50.8717 377.697 53.3197 383.265 58.2157C388.929 63.0157 391.761 69.4957 391.761 77.6557C391.761 85.7197 388.929 92.2957 383.265 97.3837C377.697 102.28 370.401 104.728 361.377 104.728C352.353 104.728 345.057 102.28 339.489 97.3837ZM351.153 77.6557C351.153 80.7277 352.113 83.1277 354.033 84.8557C355.953 86.5837 358.401 87.4477 361.377 87.4477C364.545 87.4477 367.041 86.5837 368.865 84.8557C370.689 83.1277 371.601 80.7277 371.601 77.6557C371.601 74.7757 370.641 72.4717 368.721 70.7437C366.897 69.0157 364.449 68.1517 361.377 68.1517C358.305 68.1517 355.809 69.0157 353.889 70.7437C352.065 72.4717 351.153 74.7757 351.153 77.6557ZM298.305 104.728L285.921 96.2317L357.489 0.47168L369.585 9.54367L298.305 104.728Z" fill="#5920E9"/>
<path d="M52.4435 162.832L53.2595 164.368C52.6995 164.944 51.9395 165.4 50.9795 165.736C50.0195 166.072 49.0115 166.24 47.9555 166.24C45.4435 166.24 43.3875 165.456 41.7875 163.888C40.2195 162.288 39.4355 160.192 39.4355 157.6C39.4355 155.104 40.1875 153.048 41.6915 151.432C43.1955 149.784 45.2355 148.96 47.8115 148.96C49.9395 148.96 51.6435 149.504 52.9235 150.592L51.9875 152.128C50.8675 151.296 49.4835 150.88 47.8355 150.88C46.0115 150.88 44.5155 151.504 43.3475 152.752C42.1795 153.984 41.5955 155.6 41.5955 157.6C41.5955 159.6 42.1955 161.224 43.3955 162.472C44.6275 163.704 46.2115 164.32 48.1475 164.32C49.7795 164.32 51.2115 163.824 52.4435 162.832Z" fill="white"/>
<path d="M56.9696 157.12H53.0096V155.2H62.8496V157.12H58.8896V166H56.9696V157.12Z" fill="white"/>
<path d="M65.5239 157.48L65.0199 155.944C66.0919 155.288 67.2919 154.96 68.6199 154.96C70.0759 154.96 71.1319 155.32 71.7879 156.04C72.4439 156.76 72.7719 157.872 72.7719 159.376V166H70.9479V164.608C70.0999 165.648 68.9479 166.168 67.4919 166.168C66.4999 166.168 65.6999 165.872 65.0919 165.28C64.4839 164.672 64.1799 163.856 64.1799 162.832C64.1799 161.776 64.5559 160.944 65.3079 160.336C66.0599 159.712 67.0439 159.4 68.2599 159.4C69.3959 159.4 70.2919 159.632 70.9479 160.096C70.9479 158.88 70.7799 158.008 70.4439 157.48C70.1079 156.952 69.4599 156.688 68.4999 156.688C67.5239 156.688 66.5319 156.952 65.5239 157.48ZM68.1639 164.44C69.2359 164.44 70.1639 163.976 70.9479 163.048V161.68C70.2759 161.2 69.4679 160.96 68.5239 160.96C67.8679 160.96 67.3159 161.12 66.8679 161.44C66.4359 161.744 66.2199 162.176 66.2199 162.736C66.2199 163.264 66.3879 163.68 66.7239 163.984C67.0759 164.288 67.5559 164.44 68.1639 164.44Z" fill="white"/>
<path d="M85.299 166H83.379V157.12H79.587L79.467 158.944C79.339 160.432 79.147 161.672 78.891 162.664C78.651 163.64 78.331 164.376 77.931 164.872C77.547 165.352 77.139 165.688 76.707 165.88C76.275 166.056 75.747 166.144 75.123 166.144L74.979 164.272C75.155 164.288 75.339 164.264 75.531 164.2C75.723 164.12 75.931 163.96 76.155 163.72C76.395 163.48 76.603 163.16 76.779 162.76C76.971 162.36 77.139 161.8 77.283 161.08C77.443 160.344 77.547 159.504 77.595 158.56L77.787 155.2H85.299V166Z" fill="white"/>
<path d="M95.6964 155.2H98.2164L93.4884 160.36L98.6724 166H96.0084L91.1364 160.48L95.6964 155.2ZM90.6804 166H88.7604V155.2H90.6804V166Z" fill="white"/>
<path d="M108.874 157.96L102.634 166H100.714V155.2H102.634V163.24L108.874 155.2H110.794V166H108.874V157.96Z" fill="white"/>
<path d="M114.284 166V155.2C114.364 155.2 114.476 155.2 114.62 155.2C114.764 155.184 114.972 155.176 115.244 155.176C115.516 155.16 115.764 155.152 115.988 155.152C117.172 155.12 117.908 155.104 118.196 155.104C121.3 155.104 122.852 156.032 122.852 157.888C122.852 158.528 122.652 159.08 122.252 159.544C121.852 159.992 121.332 160.264 120.692 160.36V160.408C122.372 160.712 123.212 161.56 123.212 162.952C123.212 165.048 121.556 166.096 118.244 166.096C118.084 166.096 117.38 166.08 116.132 166.048C115.892 166.048 115.628 166.04 115.34 166.024C115.052 166.024 114.828 166.016 114.668 166C114.508 166 114.38 166 114.284 166ZM118.508 161.152H116.204V164.464C117.356 164.512 118.092 164.536 118.412 164.536C120.252 164.536 121.172 163.96 121.172 162.808C121.172 161.704 120.284 161.152 118.508 161.152ZM118.34 156.664C117.876 156.664 117.164 156.688 116.204 156.736V159.952H118.628C119.284 159.952 119.812 159.8 120.212 159.496C120.612 159.192 120.812 158.784 120.812 158.272C120.812 157.2 119.988 156.664 118.34 156.664Z" fill="white"/>
<path d="M126.719 157.48L126.215 155.944C127.287 155.288 128.487 154.96 129.815 154.96C131.271 154.96 132.327 155.32 132.983 156.04C133.639 156.76 133.967 157.872 133.967 159.376V166H132.143V164.608C131.295 165.648 130.143 166.168 128.687 166.168C127.695 166.168 126.895 165.872 126.287 165.28C125.679 164.672 125.375 163.856 125.375 162.832C125.375 161.776 125.751 160.944 126.503 160.336C127.255 159.712 128.239 159.4 129.455 159.4C130.591 159.4 131.487 159.632 132.143 160.096C132.143 158.88 131.975 158.008 131.639 157.48C131.303 156.952 130.655 156.688 129.695 156.688C128.719 156.688 127.727 156.952 126.719 157.48ZM129.359 164.44C130.431 164.44 131.359 163.976 132.143 163.048V161.68C131.471 161.2 130.663 160.96 129.719 160.96C129.063 160.96 128.511 161.12 128.063 161.44C127.631 161.744 127.415 162.176 127.415 162.736C127.415 163.264 127.583 163.68 127.919 163.984C128.271 164.288 128.751 164.44 129.359 164.44Z" fill="white"/>
<path d="M146.494 166H144.574V157.12H140.782L140.662 158.944C140.534 160.432 140.342 161.672 140.086 162.664C139.846 163.64 139.526 164.376 139.126 164.872C138.742 165.352 138.334 165.688 137.902 165.88C137.47 166.056 136.942 166.144 136.318 166.144L136.174 164.272C136.35 164.288 136.534 164.264 136.726 164.2C136.918 164.12 137.126 163.96 137.35 163.72C137.59 163.48 137.798 163.16 137.974 162.76C138.166 162.36 138.334 161.8 138.478 161.08C138.638 160.344 138.742 159.504 138.79 158.56L138.982 155.2H146.494V166Z" fill="white"/>
<path d="M158.116 157.96L151.876 166H149.956V155.2H151.876V163.24L158.116 155.2H160.036V166H158.116V157.96Z" fill="white"/>
<path d="M171.83 163.048L172.742 164.44C171.814 165.64 170.43 166.24 168.59 166.24C166.862 166.24 165.462 165.728 164.39 164.704C163.334 163.68 162.806 162.312 162.806 160.6C162.806 159.016 163.326 157.68 164.366 156.592C165.406 155.504 166.71 154.96 168.278 154.96C170.166 154.96 171.582 155.432 172.526 156.376L171.638 157.888C170.806 157.136 169.774 156.76 168.542 156.76C167.534 156.76 166.662 157.128 165.926 157.864C165.206 158.584 164.846 159.496 164.846 160.6C164.846 161.768 165.214 162.696 165.95 163.384C166.702 164.088 167.63 164.44 168.734 164.44C169.982 164.44 171.014 163.976 171.83 163.048Z" fill="white"/>
<path d="M178.893 166H175.245V155.2H177.165V158.44H179.133C180.605 158.44 181.685 158.776 182.373 159.448C183.061 160.104 183.405 161.008 183.405 162.16C183.405 163.248 183.045 164.16 182.325 164.896C181.605 165.632 180.461 166 178.893 166ZM178.773 160.24H177.165V164.2H178.749C180.493 164.2 181.365 163.544 181.365 162.232C181.365 160.904 180.501 160.24 178.773 160.24Z" fill="white"/>
<path d="M199.674 163.048L200.586 164.44C199.658 165.64 198.274 166.24 196.434 166.24C194.706 166.24 193.306 165.728 192.234 164.704C191.178 163.68 190.65 162.312 190.65 160.6C190.65 159.016 191.17 157.68 192.21 156.592C193.25 155.504 194.554 154.96 196.122 154.96C198.01 154.96 199.426 155.432 200.37 156.376L199.482 157.888C198.65 157.136 197.618 156.76 196.386 156.76C195.378 156.76 194.506 157.128 193.77 157.864C193.05 158.584 192.69 159.496 192.69 160.6C192.69 161.768 193.058 162.696 193.794 163.384C194.546 164.088 195.474 164.44 196.578 164.44C197.826 164.44 198.858 163.976 199.674 163.048Z" fill="white"/>
<path d="M209.343 164.656C208.287 163.568 207.759 162.216 207.759 160.6C207.759 158.968 208.287 157.624 209.343 156.568C210.415 155.496 211.807 154.96 213.519 154.96C215.231 154.96 216.615 155.496 217.671 156.568C218.743 157.624 219.279 158.968 219.279 160.6C219.279 162.232 218.743 163.584 217.671 164.656C216.615 165.712 215.231 166.24 213.519 166.24C211.823 166.24 210.431 165.712 209.343 164.656ZM210.855 157.84C210.151 158.544 209.799 159.464 209.799 160.6C209.799 161.736 210.143 162.656 210.831 163.36C211.535 164.08 212.431 164.44 213.519 164.44C214.607 164.44 215.495 164.088 216.183 163.384C216.887 162.664 217.239 161.736 217.239 160.6C217.239 159.496 216.887 158.576 216.183 157.84C215.495 157.12 214.607 156.76 213.519 156.76C212.431 156.76 211.543 157.12 210.855 157.84Z" fill="white"/>
<path d="M235.729 166H222.049V155.2H223.969V164.2H227.929V155.2H229.849V164.2H233.809V155.2H235.729V164.2H237.529V168.64H235.729V166Z" fill="white"/>
<path d="M247.26 155.2H249.444L245.124 166C244.34 167.904 243.66 169.168 243.084 169.792C242.476 170.464 241.78 170.8 240.996 170.8C240.292 170.8 239.612 170.576 238.956 170.128L239.58 168.664C240.092 168.904 240.492 169.024 240.78 169.024C241.228 169.024 241.628 168.832 241.98 168.448C242.348 168.064 242.716 167.44 243.084 166.576L243.324 166L238.14 155.2H240.444L243.612 162.064C243.676 162.176 243.892 162.72 244.26 163.696C244.404 163.168 244.572 162.616 244.764 162.04L247.26 155.2Z" fill="white"/>
<path d="M265.097 166H251.417V155.2H253.337V164.2H257.297V155.2H259.217V164.2H263.177V155.2H265.097V164.2H266.897V168.64H265.097V166Z" fill="white"/>
<path d="M277.515 163.312L278.115 164.824C277.075 165.768 275.723 166.24 274.059 166.24C272.299 166.24 270.899 165.728 269.859 164.704C268.803 163.68 268.275 162.312 268.275 160.6C268.275 158.984 268.771 157.64 269.763 156.568C270.739 155.496 272.099 154.96 273.843 154.96C275.283 154.96 276.475 155.424 277.419 156.352C278.379 157.264 278.859 158.448 278.859 159.904C278.859 160.368 278.819 160.8 278.739 161.2H270.435C270.515 162.208 270.891 163 271.563 163.576C272.251 164.152 273.131 164.44 274.203 164.44C275.611 164.44 276.715 164.064 277.515 163.312ZM273.747 156.76C272.803 156.76 272.019 157.024 271.395 157.552C270.787 158.08 270.427 158.776 270.315 159.64H276.867C276.819 158.744 276.515 158.04 275.955 157.528C275.411 157.016 274.675 156.76 273.747 156.76Z" fill="white"/>
<path d="M291.304 166H289.384V161.44H283.384V166H281.464V155.2H283.384V159.64H289.384V155.2H291.304V166Z" fill="white"/>
<path d="M302.936 157.96L296.696 166H294.776V155.2H296.696V163.24L302.936 155.2H304.856V166H302.936V157.96Z" fill="white"/>
<path d="M316.866 163.312L317.466 164.824C316.426 165.768 315.074 166.24 313.41 166.24C311.65 166.24 310.25 165.728 309.21 164.704C308.154 163.68 307.626 162.312 307.626 160.6C307.626 158.984 308.122 157.64 309.114 156.568C310.09 155.496 311.45 154.96 313.194 154.96C314.634 154.96 315.826 155.424 316.77 156.352C317.73 157.264 318.21 158.448 318.21 159.904C318.21 160.368 318.17 160.8 318.09 161.2H309.786C309.866 162.208 310.242 163 310.914 163.576C311.602 164.152 312.482 164.44 313.554 164.44C314.962 164.44 316.066 164.064 316.866 163.312ZM313.098 156.76C312.154 156.76 311.37 157.024 310.746 157.552C310.138 158.08 309.778 158.776 309.666 159.64H316.218C316.17 158.744 315.866 158.04 315.306 157.528C314.762 157.016 314.026 156.76 313.098 156.76Z" fill="white"/>
<path d="M322.735 166H320.815V155.2H322.567L326.719 160.552L330.655 155.2H332.359V166H330.439V158.128L326.695 163.144H326.623L322.735 158.128V166Z" fill="white"/>
<path d="M335.407 164.896C335.407 164.512 335.527 164.208 335.767 163.984C336.007 163.744 336.343 163.624 336.775 163.624C337.287 163.624 337.703 163.84 338.023 164.272C338.343 164.688 338.503 165.248 338.503 165.952C338.503 166.816 338.263 167.56 337.783 168.184C337.319 168.824 336.679 169.264 335.863 169.504L335.335 168.592C336.167 168.336 336.679 167.8 336.871 166.984C336.983 166.44 336.975 166.04 336.847 165.784C336.751 165.928 336.575 166 336.319 166C336.079 166 335.863 165.896 335.671 165.688C335.495 165.464 335.407 165.2 335.407 164.896Z" fill="white"/>
<path d="M74.3274 190.2H76.2474V201H74.3274V196.8C73.4954 197.328 72.4954 197.592 71.3274 197.592C68.7674 197.592 67.4874 196.216 67.4874 193.464V190.2H69.5274V193.248C69.5274 194.944 70.3034 195.792 71.8554 195.792C72.8634 195.792 73.6874 195.568 74.3274 195.12V190.2Z" fill="white"/>
<path d="M82.3055 192.12H78.3455V190.2H88.1855V192.12H84.2255V201H82.3055V192.12Z" fill="white"/>
<path d="M90.7963 199.656C89.7403 198.568 89.2123 197.216 89.2123 195.6C89.2123 193.968 89.7403 192.624 90.7963 191.568C91.8683 190.496 93.2603 189.96 94.9723 189.96C96.6843 189.96 98.0683 190.496 99.1243 191.568C100.196 192.624 100.732 193.968 100.732 195.6C100.732 197.232 100.196 198.584 99.1243 199.656C98.0683 200.712 96.6843 201.24 94.9723 201.24C93.2763 201.24 91.8843 200.712 90.7963 199.656ZM92.3083 192.84C91.6043 193.544 91.2523 194.464 91.2523 195.6C91.2523 196.736 91.5963 197.656 92.2843 198.36C92.9883 199.08 93.8843 199.44 94.9723 199.44C96.0603 199.44 96.9483 199.088 97.6363 198.384C98.3403 197.664 98.6923 196.736 98.6923 195.6C98.6923 194.496 98.3403 193.576 97.6363 192.84C96.9483 192.12 96.0603 191.76 94.9723 191.76C93.8843 191.76 92.9963 192.12 92.3083 192.84Z" fill="white"/>
<path d="M108.893 201V190.2C108.973 190.2 109.085 190.2 109.229 190.2C109.373 190.184 109.581 190.176 109.853 190.176C110.125 190.16 110.373 190.152 110.597 190.152C111.781 190.12 112.517 190.104 112.805 190.104C115.909 190.104 117.461 191.032 117.461 192.888C117.461 193.528 117.261 194.08 116.861 194.544C116.461 194.992 115.941 195.264 115.301 195.36V195.408C116.981 195.712 117.821 196.56 117.821 197.952C117.821 200.048 116.165 201.096 112.853 201.096C112.693 201.096 111.989 201.08 110.741 201.048C110.501 201.048 110.237 201.04 109.949 201.024C109.661 201.024 109.437 201.016 109.277 201C109.117 201 108.989 201 108.893 201ZM113.117 196.152H110.813V199.464C111.965 199.512 112.701 199.536 113.021 199.536C114.861 199.536 115.781 198.96 115.781 197.808C115.781 196.704 114.893 196.152 113.117 196.152ZM112.949 191.664C112.485 191.664 111.773 191.688 110.813 191.736V194.952H113.237C113.893 194.952 114.421 194.8 114.821 194.496C115.221 194.192 115.421 193.784 115.421 193.272C115.421 192.2 114.597 191.664 112.949 191.664Z" fill="white"/>
<path d="M129.057 198.048L129.969 199.44C129.041 200.64 127.657 201.24 125.817 201.24C124.089 201.24 122.689 200.728 121.617 199.704C120.561 198.68 120.033 197.312 120.033 195.6C120.033 194.016 120.553 192.68 121.593 191.592C122.633 190.504 123.937 189.96 125.505 189.96C127.393 189.96 128.809 190.432 129.753 191.376L128.865 192.888C128.033 192.136 127.001 191.76 125.769 191.76C124.761 191.76 123.889 192.128 123.153 192.864C122.433 193.584 122.073 194.496 122.073 195.6C122.073 196.768 122.441 197.696 123.177 198.384C123.929 199.088 124.857 199.44 125.961 199.44C127.209 199.44 128.241 198.976 129.057 198.048Z" fill="white"/>
<path d="M136.684 190.2H140.044V201H138.124V197.4H136.036L133.396 201H131.068L134.188 196.92C133.532 196.776 132.98 196.424 132.532 195.864C132.084 195.288 131.86 194.6 131.86 193.8C131.86 192.696 132.26 191.824 133.06 191.184C133.86 190.528 135.068 190.2 136.684 190.2ZM133.9 193.848C133.9 194.36 134.1 194.784 134.5 195.12C134.9 195.44 135.372 195.6 135.916 195.6H138.124V192H136.372C135.556 192 134.94 192.168 134.524 192.504C134.108 192.84 133.9 193.288 133.9 193.848Z" fill="white"/>
<path d="M150.844 201H148.924V190.2H150.676L154.828 195.552L158.764 190.2H160.468V201H158.548V193.128L154.804 198.144H154.732L150.844 193.128V201Z" fill="white"/>
<path d="M171.58 190.2H173.764L169.444 201C168.66 202.904 167.98 204.168 167.404 204.792C166.796 205.464 166.1 205.8 165.316 205.8C164.612 205.8 163.932 205.576 163.276 205.128L163.9 203.664C164.412 203.904 164.812 204.024 165.1 204.024C165.548 204.024 165.948 203.832 166.3 203.448C166.668 203.064 167.036 202.44 167.404 201.576L167.644 201L162.46 190.2H164.764L167.932 197.064C167.996 197.176 168.212 197.72 168.58 198.696C168.724 198.168 168.892 197.616 169.084 197.04L171.58 190.2Z" fill="white"/>
<path d="M179.313 201.24C178.497 201.24 177.633 201.104 176.721 200.832C175.841 200.544 175.217 200.192 174.849 199.776L175.833 198.336C176.265 198.688 176.777 198.976 177.369 199.2C177.977 199.408 178.529 199.512 179.025 199.512C179.857 199.512 180.537 199.352 181.065 199.032C181.593 198.696 181.857 198.264 181.857 197.736C181.857 197.288 181.665 196.944 181.281 196.704C180.913 196.464 180.401 196.344 179.745 196.344H177.921V194.784H179.625C180.169 194.784 180.617 194.64 180.969 194.352C181.321 194.048 181.497 193.68 181.497 193.248C181.497 192.768 181.289 192.392 180.873 192.12C180.457 191.832 179.897 191.688 179.193 191.688C178.057 191.688 176.977 192.088 175.953 192.888L175.209 191.4C175.641 190.952 176.241 190.6 177.009 190.344C177.793 190.088 178.617 189.96 179.481 189.96C180.761 189.96 181.753 190.216 182.457 190.728C183.177 191.24 183.537 191.952 183.537 192.864C183.537 194.112 182.905 194.96 181.641 195.408V195.456C182.345 195.536 182.897 195.816 183.297 196.296C183.697 196.76 183.897 197.328 183.897 198C183.897 198.992 183.473 199.784 182.625 200.376C181.793 200.952 180.689 201.24 179.313 201.24Z" fill="white"/>
<path d="M190.303 201H186.823V190.2H188.743V193.44H190.519C191.991 193.44 193.071 193.776 193.759 194.448C194.447 195.104 194.791 196.008 194.791 197.16C194.791 198.248 194.431 199.16 193.711 199.896C193.023 200.632 191.887 201 190.303 201ZM198.775 201H196.855V190.2H198.775V201ZM190.159 195.24H188.743V199.2H190.135C191.047 199.2 191.711 199.04 192.127 198.72C192.543 198.4 192.751 197.904 192.751 197.232C192.751 195.904 191.887 195.24 190.159 195.24Z" fill="white"/>
<path d="M209.157 190.2H211.677L206.949 195.36L212.133 201H209.469L204.597 195.48L209.157 190.2ZM204.141 201H202.221V190.2H204.141V201Z" fill="white"/>
<path d="M214.75 192.48L214.246 190.944C215.318 190.288 216.518 189.96 217.846 189.96C219.302 189.96 220.358 190.32 221.014 191.04C221.67 191.76 221.998 192.872 221.998 194.376V201H220.174V199.608C219.326 200.648 218.174 201.168 216.718 201.168C215.726 201.168 214.926 200.872 214.318 200.28C213.71 199.672 213.406 198.856 213.406 197.832C213.406 196.776 213.782 195.944 214.534 195.336C215.286 194.712 216.27 194.4 217.486 194.4C218.622 194.4 219.518 194.632 220.174 195.096C220.174 193.88 220.006 193.008 219.67 192.48C219.334 191.952 218.686 191.688 217.726 191.688C216.75 191.688 215.758 191.952 214.75 192.48ZM217.39 199.44C218.462 199.44 219.39 198.976 220.174 198.048V196.68C219.502 196.2 218.694 195.96 217.75 195.96C217.094 195.96 216.542 196.12 216.094 196.44C215.662 196.744 215.446 197.176 215.446 197.736C215.446 198.264 215.614 198.68 215.95 198.984C216.302 199.288 216.782 199.44 217.39 199.44Z" fill="white"/>
<path d="M240.444 201H238.524V196.44H232.524V201H230.604V190.2H232.524V194.64H238.524V190.2H240.444V201Z" fill="white"/>
<path d="M244.493 192.48L243.989 190.944C245.061 190.288 246.261 189.96 247.589 189.96C249.045 189.96 250.101 190.32 250.757 191.04C251.413 191.76 251.741 192.872 251.741 194.376V201H249.917V199.608C249.069 200.648 247.917 201.168 246.461 201.168C245.469 201.168 244.669 200.872 244.061 200.28C243.453 199.672 243.149 198.856 243.149 197.832C243.149 196.776 243.525 195.944 244.277 195.336C245.029 194.712 246.013 194.4 247.229 194.4C248.365 194.4 249.261 194.632 249.917 195.096C249.917 193.88 249.749 193.008 249.413 192.48C249.077 191.952 248.429 191.688 247.469 191.688C246.493 191.688 245.501 191.952 244.493 192.48ZM247.133 199.44C248.205 199.44 249.133 198.976 249.917 198.048V196.68C249.245 196.2 248.437 195.96 247.493 195.96C246.837 195.96 246.285 196.12 245.837 196.44C245.405 196.744 245.189 197.176 245.189 197.736C245.189 198.264 245.357 198.68 245.693 198.984C246.045 199.288 246.525 199.44 247.133 199.44Z" fill="white"/>
<path d="M255.268 203.64H253.468V199.2H254.812C255.212 198.704 255.564 197.904 255.868 196.8C256.172 195.68 256.372 194.432 256.468 193.056L256.636 190.2H264.004V199.2H265.804V203.64H264.004V201H255.268V203.64ZM258.436 192L258.316 193.8C258.22 195 258.028 196.096 257.74 197.088C257.452 198.08 257.156 198.784 256.852 199.2H262.084V192H258.436Z" fill="white"/>
<path d="M268.757 199.656C267.701 198.568 267.173 197.216 267.173 195.6C267.173 193.968 267.701 192.624 268.757 191.568C269.829 190.496 271.221 189.96 272.933 189.96C274.645 189.96 276.029 190.496 277.085 191.568C278.157 192.624 278.693 193.968 278.693 195.6C278.693 197.232 278.157 198.584 277.085 199.656C276.029 200.712 274.645 201.24 272.933 201.24C271.237 201.24 269.845 200.712 268.757 199.656ZM270.269 192.84C269.565 193.544 269.213 194.464 269.213 195.6C269.213 196.736 269.557 197.656 270.245 198.36C270.949 199.08 271.845 199.44 272.933 199.44C274.021 199.44 274.909 199.088 275.597 198.384C276.301 197.664 276.653 196.736 276.653 195.6C276.653 194.496 276.301 193.576 275.597 192.84C274.909 192.12 274.021 191.76 272.933 191.76C271.845 191.76 270.957 192.12 270.269 192.84Z" fill="white"/>
<path d="M289.984 198.312L290.584 199.824C289.544 200.768 288.192 201.24 286.528 201.24C284.768 201.24 283.368 200.728 282.328 199.704C281.272 198.68 280.744 197.312 280.744 195.6C280.744 193.984 281.24 192.64 282.232 191.568C283.208 190.496 284.568 189.96 286.312 189.96C287.752 189.96 288.944 190.424 289.888 191.352C290.848 192.264 291.328 193.448 291.328 194.904C291.328 195.368 291.288 195.8 291.208 196.2H282.904C282.984 197.208 283.36 198 284.032 198.576C284.72 199.152 285.6 199.44 286.672 199.44C288.08 199.44 289.184 199.064 289.984 198.312ZM286.216 191.76C285.272 191.76 284.488 192.024 283.864 192.552C283.256 193.08 282.896 193.776 282.784 194.64H289.336C289.288 193.744 288.984 193.04 288.424 192.528C287.88 192.016 287.144 191.76 286.216 191.76Z" fill="white"/>
<path d="M302.822 201H300.902V192.12H297.11L296.99 193.944C296.862 195.432 296.67 196.672 296.414 197.664C296.174 198.64 295.854 199.376 295.454 199.872C295.07 200.352 294.662 200.688 294.23 200.88C293.798 201.056 293.27 201.144 292.646 201.144L292.502 199.272C292.678 199.288 292.862 199.264 293.054 199.2C293.246 199.12 293.454 198.96 293.678 198.72C293.918 198.48 294.126 198.16 294.302 197.76C294.494 197.36 294.662 196.8 294.806 196.08C294.966 195.344 295.07 194.504 295.118 193.56L295.31 190.2H302.822V201Z" fill="white"/>
<path d="M306.86 192.48L306.356 190.944C307.428 190.288 308.628 189.96 309.956 189.96C311.412 189.96 312.468 190.32 313.124 191.04C313.78 191.76 314.108 192.872 314.108 194.376V201H312.284V199.608C311.436 200.648 310.284 201.168 308.828 201.168C307.836 201.168 307.036 200.872 306.428 200.28C305.82 199.672 305.516 198.856 305.516 197.832C305.516 196.776 305.892 195.944 306.644 195.336C307.396 194.712 308.38 194.4 309.596 194.4C310.732 194.4 311.628 194.632 312.284 195.096C312.284 193.88 312.116 193.008 311.78 192.48C311.444 191.952 310.796 191.688 309.836 191.688C308.86 191.688 307.868 191.952 306.86 192.48ZM309.5 199.44C310.572 199.44 311.5 198.976 312.284 198.048V196.68C311.612 196.2 310.804 195.96 309.86 195.96C309.204 195.96 308.652 196.12 308.204 196.44C307.772 196.744 307.556 197.176 307.556 197.736C307.556 198.264 307.724 198.68 308.06 198.984C308.412 199.288 308.892 199.44 309.5 199.44Z" fill="white"/>
</svg>
